# File created by Blade
# Date/Time:  Fri Jan 16 17:45:47 2015
#---------------------------------------------------------
:version 1.10
:name HOM
:units
  mass 1.0
  length 1.000000
  angle deg
:documentation
     Acclaim Skeleton File
:root
   axis xyz
   order TX TY TZ RX RY RZ
   position 0.000000 0.000000 0.000000
   orientation 0 0 0
:bonedata
   begin
      id 1
      name Spine_dum
      direction 0.000000 1.000000 0.000000
      length 7.170412
      axis 0.0 0.0 0.0 xyz
   end
   begin
      id 2
      name LeftUpLeg_dum
      direction 1.000000 0.000000 0.000000
      length 4.318350
      axis 0.0 0.0 0.0 xyz
   end
   begin
      id 3
      name RightUpLeg_dum
      direction -1.000000 0.000000 0.000000
      length 4.318350
      axis 0.0 0.0 0.0 xyz
   end
   begin
      id 4
      name Spine
      direction 0.000000 1.000000 0.000000
      length 0.000000
      axis 0.0 0.0 0.0 xyz
      dof rx ry rz
   end
   begin
      id 5
      name Spine_dum1
      direction 0.000000 1.000000 0.000000
      length 14.276153
      axis 0.0 0.0 0.0 xyz
   end
   begin
      id 6
      name Spine_dum2
      direction 0.000000 1.000000 0.000000
      length 10.718243
      axis 0.0 0.0 0.0 xyz
   end
   begin
      id 7
      name Spine_dum3
      direction 0.000000 1.000000 0.000000
      length 10.718243
      axis 0.0 0.0 0.0 xyz
   end
   begin
      id 8
      name Head
      direction 0.000000 1.000000 0.000000
      length 4.527550
      axis 0.0 0.0 0.0 xyz
      dof rx ry rz
   end
   begin
      id 9
      name LeftShoulder
      direction 1.000000 0.000000 0.000000
      length 7.058872
      axis 0.0 0.0 -90.0 xyz
      dof rx ry rz
   end
   begin
      id 10
      name LeftArm
      direction 1.000000 0.000000 0.000000
      length 10.955525
      axis 0.0 0.0 -90.0 xyz
      dof rx ry rz
   end
   begin
      id 11
      name LeftForeArm
      direction 1.000000 0.000000 0.000000
      length 8.193716
      axis 0.0 0.0 -90.0 xyz
      dof ry rz rx
   end
   begin
      id 12
      name LeftHand
      direction 0.000000 0.000000 0.000000
      length 0.000000
      axis 0.0 0.0 -90.0 xyz
      dof rx ry rz
   end
   begin
      id 13
      name LeftHand_dum1
      direction 0.000000 0.000000 0.000000
      length 0.000000
      axis 0.0 0.0 -90.0 xyz
   end
   begin
      id 14
      name LeftHand_dum2
      direction 1.000000 0.000000 0.000000
      length 3.937000
      axis 0.0 0.0 -90.0 xyz
   end
   begin
      id 15
      name LeftHandThumb1
      direction 0.000000 0.000000 1.000000
      length 3.937000
      axis 0.0 0.0 -90.0 xyz
      dof rx rz ry
   end
   begin
      id 16
      name RightShoulder
      direction -1.000000 0.000000 0.000000
      length 7.058872
      axis 0.0 0.0 90.0 xyz
      dof rx ry rz
   end
   begin
      id 17
      name RightArm
      direction -1.000000 0.000000 0.000000
      length 10.955525
      axis 0.0 0.0 90.0 xyz
      dof rx ry rz
   end
   begin
      id 18
      name RightForeArm
      direction -1.000000 0.000000 0.000000
      length 8.193716
      axis 0.0 0.0 90.0 xyz
      dof ry rz rx
   end
   begin
      id 19
      name RightHand
      direction 0.000000 0.000000 0.000000
      length 0.000000
      axis 0.0 0.0 90.0 xyz
      dof rx ry rz
   end
   begin
      id 20
      name RightHand_dum1
      direction 0.000000 0.000000 0.000000
      length 0.000000
      axis 0.0 0.0 90.0 xyz
   end
   begin
      id 21
      name RightHand_dum2
      direction -1.000000 0.000000 0.000000
      length 3.937000
      axis 0.0 0.0 90.0 xyz
   end
   begin
      id 22
      name RightHandThumb1
      direction 0.000000 0.000000 1.000000
      length 3.937000
      axis 0.0 0.0 90.0 xyz
      dof rx rz ry
   end
   begin
      id 23
      name LeftUpLeg
      direction 0.000000 -1.000000 0.000000
      length 17.323638
      axis 0.0 0.0 0.0 xyz
      dof rx ry rz
   end
   begin
      id 24
      name LeftLeg
      direction 0.000000 -1.000000 0.000000
      length 16.270368
      axis 0.0 0.0 0.0 xyz
      dof rx ry rz
   end
   begin
      id 25
      name LeftFoot
      direction 0.000000 -0.258819 0.965926
      length 4.922846
      axis 15.0 0.0 0.0 xyz
      dof rx ry rz
   end
   begin
      id 26
      name LeftToeBase
      direction 0.000000 0.000000 1.000000
      length 2.952750
      axis 0.0 0.0 0.0 xyz
      dof rx ry rz
   end
   begin
      id 27
      name RightUpLeg
      direction 0.000000 -1.000000 0.000000
      length 17.323638
      axis 0.0 0.0 0.0 xyz
      dof rx ry rz
   end
   begin
      id 28
      name RightLeg
      direction 0.000000 -1.000000 0.000000
      length 16.270368
      axis 0.0 0.0 0.0 xyz
      dof rx ry rz
   end
   begin
      id 29
      name RightFoot
      direction 0.000000 -0.258819 0.965926
      length 4.922846
      axis 15.0 0.0 0.0 xyz
      dof rx ry rz
   end
   begin
      id 30
      name RightToeBase
      direction 0.000000 0.000000 1.000000
      length 2.952750
      axis 0.0 0.0 0.0 xyz
      dof rx ry rz
   end
:hierarchy
   begin
      root Spine_dum LeftUpLeg_dum RightUpLeg_dum
      Spine_dum Spine
      LeftUpLeg_dum LeftUpLeg
      RightUpLeg_dum RightUpLeg
      Spine Spine_dum1 Spine_dum2 Spine_dum3
      Spine_dum1 Head
      Spine_dum2 LeftShoulder
      Spine_dum3 RightShoulder
      LeftShoulder LeftArm
      LeftArm LeftForeArm
      LeftForeArm LeftHand
      LeftHand LeftHand_dum1 LeftHand_dum2
      LeftHand_dum1 LeftHandThumb1
      RightShoulder RightArm
      RightArm RightForeArm
      RightForeArm RightHand
      RightHand RightHand_dum1 RightHand_dum2
      RightHand_dum1 RightHandThumb1
      LeftUpLeg LeftLeg
      LeftLeg LeftFoot
      LeftFoot LeftToeBase
      RightUpLeg RightLeg
      RightLeg RightFoot
      RightFoot RightToeBase
   end

# File created by Blade
# Date/Time:  Fri Jan 16 17:45:28 2015
# Frame Rate: 120.000 fps
#------------------------------------------------------
:FULLY-SPECIFIED
:DEGREES
2500
root -5.107175 35.223734 -9.914479 -2.575533 -5.715941 -6.053717
Spine -1.531188 -2.418903 10.328632
Head 7.587191 2.185433 -7.584474
LeftShoulder -19.652735 14.962183 -17.031351
LeftArm 18.952298 0.981226 -74.447547
LeftForeArm 4.832511 -0.000000 12.175868
LeftHand 2.064965 -0.000000 -6.272044
LeftHandThumb1 -26.253704 0.000000 33.147579
RightShoulder -5.789733 5.825021 2.764139
RightArm -8.258195 65.953897 63.505784
RightForeArm 49.598732 -0.000000 99.683365
RightHand 21.220293 -0.000000 0.716267
RightHandThumb1 -24.326973 -0.000000 -32.862282
LeftUpLeg 12.781455 14.683068 7.105658
LeftLeg -9.190831 -0.000000 0.000000
LeftFoot -15.825304 27.660002 -7.795243
LeftToeBase 23.020810 -0.000000 -0.000000
RightUpLeg 8.834454 -4.599728 3.683132
RightLeg -3.916391 -0.000000 0.000000
RightFoot -4.564275 -27.221677 3.968386
RightToeBase 13.874642 -0.000000 -0.000000
2501
root -5.111054 35.223496 -9.906238 -2.639644 -5.773370 -6.039553
Spine -1.464656 -2.347327 10.289399
Head 7.560287 2.133484 -7.601506
LeftShoulder -19.635424 14.976939 -17.021198
LeftArm 18.977578 0.905329 -74.418390
LeftForeArm 4.875339 -0.000000 12.205399
LeftHand 2.076914 -0.000000 -6.268635
LeftHandThumb1 -26.253704 0.000000 33.147579
RightShoulder -5.712046 5.908177 2.774902
RightArm -8.446042 65.779674 63.184495
RightForeArm 49.970687 -0.000000 96.889405
RightHand 21.131123 -0.000000 0.524540
RightHandThumb1 -24.326973 -0.000000 -32.862282
LeftUpLeg 12.876178 14.440320 7.080374
LeftLeg -9.191201 -0.000000 0.000000
LeftFoot -15.879007 27.899583 -7.916167
LeftToeBase 22.918164 -0.000000 -0.000000
RightUpLeg 8.922499 -4.568561 3.669639
RightLeg -3.945887 -0.000000 0.000000
RightFoot -4.559782 -27.206647 3.944157
RightToeBase 13.896009 -0.000000 -0.000000
2502
root -5.110828 35.223220 -9.905617 -2.634984 -5.800373 -6.033259
Spine -1.467729 -2.311114 10.285622
Head 7.519099 2.110841 -7.660086
LeftShoulder -19.643415 14.937407 -17.025938
LeftArm 18.967686 0.882924 -74.376677
LeftForeArm 4.868299 0.000000 12.229794
LeftHand 2.044234 0.000000 -6.298940
LeftHandThumb1 -26.253704 0.000000 33.147579
RightShoulder -5.624563 5.968015 2.770165
RightArm -8.580907 65.639885 62.901395
RightForeArm 50.191671 -0.000000 94.102208
RightHand 21.113682 -0.000000 0.537589
RightHandThumb1 -24.326973 -0.000000 -32.862282
LeftUpLeg 12.877380 14.446789 7.070881
LeftLeg -9.190904 -0.000000 0.000000
LeftFoot -15.895537 27.922468 -7.942659
LeftToeBase 22.906614 -0.000000 -0.000000
RightUpLeg 8.927333 -4.536419 3.667051
RightLeg -3.969173 -0.000000 0.000000
RightFoot -4.550965 -27.222149 3.920316
RightToeBase 13.933318 -0.000000 -0.000000
2503
root -5.107324 35.223279 -9.912908 -2.559006 -5.753822 -6.025962
Spine -1.565380 -2.337000 10.296032
Head 7.503760 2.107490 -7.744637
LeftShoulder -19.656183 14.956202 -17.071583
LeftArm 19.010371 0.850411 -74.325154
LeftForeArm 4.837684 -0.000000 12.256820
LeftHand 2.038141 -0.000000 -6.272759
LeftHandThumb1 -26.253704 0.000000 33.147579
RightShoulder -5.538488 6.050678 2.742360
RightArm -8.713284 65.643520 62.621984
RightForeArm 50.305490 -0.000000 91.260675
RightHand 20.870635 -0.000000 0.861691
RightHandThumb1 -24.326973 -0.000000 -32.862282
LeftUpLeg 12.776012 14.707759 7.073954
LeftLeg -9.193316 -0.000000 0.000000
LeftFoot -15.828029 27.671326 -7.836925
LeftToeBase 22.956782 -0.000000 -0.000000
RightUpLeg 8.846181 -4.581689 3.656823
RightLeg -3.979050 -0.000000 0.000000
RightFoot -4.537709 -27.201479 3.938847
RightToeBase 13.885753 -0.000000 -0.000000
